<svg aria-hidden="true" style="position: absolute; width: 0; height: 0; overflow: hidden;" version="1.1" xmlns="http://www.w3.org/2000/svg" xmlns:xlink="http://www.w3.org/1999/xlink">
<defs>
<symbol id="instagram" viewBox="0 0 31 32">
<path  d="M2.743 1.221h25.6c1.161 0 2.103 0.941 2.103 2.103v25.6c0 1.161-0.941 2.103-2.103 2.103h-25.6c-1.161 0-2.103-0.941-2.103-2.103v-25.6c0-1.161 0.941-2.103 2.103-2.103z"></path>
<path  d="M23.451 16.124c0 4.368-3.541 7.909-7.909 7.909s-7.909-3.541-7.909-7.909c0-4.368 3.541-7.909 7.909-7.909s7.909 3.541 7.909 7.909z"></path>
<path  d="M27.337 6.41c0 1.149-0.931 2.080-2.080 2.080s-2.080-0.931-2.080-2.080c0-1.149 0.931-2.080 2.080-2.080s2.080 0.931 2.080 2.080z"></path>
</symbol>
<symbol id="youtube" viewBox="0 0 40 32">
<path d="M3.556 0.999h33.185c1.505 0 2.726 1.22 2.726 2.726v24.119c0 1.506-1.22 2.726-2.726 2.726h-33.185c-1.506 0-2.726-1.22-2.726-2.726v-24.119c0-1.506 1.22-2.726 2.726-2.726z"></path>
<path d="M28.619 13.753c2.297 0.909 2.297 4.16 0 5.069l-13.23 5.238c-1.789 0.708-3.729-0.61-3.729-2.535v-10.475c0-1.924 1.94-3.243 3.729-2.535l13.23 5.238z"></path>
</symbol>
<symbol id="facebook" viewBox="0 0 32 32">
<path d="M29.333 0h-26.667c-1.493 0-2.667 1.173-2.667 2.667v26.667c0 1.493 1.173 2.667 2.667 2.667h26.667c1.493 0 2.667-1.173 2.667-2.667v-26.667c0-1.493-1.173-2.667-2.667-2.667zM16 30.933v-10.667h-4.267v-4.267h4.267v-3.733c0-3.040 2.347-5.6 5.333-5.867h4.8v4.267h-4.267c-0.907 0-1.6 0.693-1.6 1.6v3.733h5.333v4.267h-5.333v10.667l-4.267-0zM30.933 29.333c0 0.907-0.693 1.6-1.6 1.6h-8v-9.6h5.333v-6.4h-5.333v-2.667c0-0.32 0.213-0.533 0.533-0.533h5.333v-6.4h-5.92c-3.573 0.32-6.347 3.36-6.347 6.933v2.667h-4.267v6.4h4.267v9.6h-12.267c-0.907 0-1.6-0.693-1.6-1.6v-26.667c0-0.907 0.693-1.6 1.6-1.6h26.667c0.907 0 1.6 0.693 1.6 1.6v26.667h-0z"></path>
</symbol>
<symbol id="search-bar" viewBox="0 0 31 32">
<path fill="#fff" style="fill: var(--color2, #fff)" d="M11.833 0c2.264-0 4.48 0.649 6.386 1.871s3.421 2.964 4.366 5.021c0.945 2.057 1.28 4.342 0.966 6.584s-1.265 4.346-2.74 6.064l10.274 10.274-1.287 1.287-10.276-10.276c-1.449 1.239-3.177 2.11-5.035 2.538s-3.792 0.4-5.638-0.080c-1.845-0.481-3.547-1.4-4.961-2.68s-2.496-2.883-3.157-4.672c-0.66-1.789-0.879-3.711-0.636-5.602s0.938-3.696 2.028-5.261 2.542-2.842 4.233-3.725c1.69-0.882 3.569-1.343 5.476-1.343v0zM11.833 1.82c-2.655 0-5.202 1.055-7.080 2.932s-2.932 4.424-2.932 7.080c0 2.655 1.055 5.202 2.932 7.080s4.424 2.932 7.080 2.932c2.655 0 5.202-1.055 7.080-2.932s2.932-4.424 2.932-7.080c0-2.655-1.055-5.202-2.932-7.080s-4.424-2.932-7.080-2.932z"></path>
</symbol>
<symbol id="scroll-down-arrow" viewBox="0 0 15 32">
<path d="M7.926 0v29.172l5.945-6.879 0.849 0.87-7.36 8.517-7.36-8.517 0.849-0.87 5.945 6.879v-29.172h1.132z"></path>
</symbol>
<symbol id="swiper-right-arrow" viewBox="0 0 17 32">
<path d="M1.876 32l15.013-16-15.013-16-1.876 2 13.136 14-13.136 14 1.876 2z"></path>
</symbol>
<symbol id="swiper-left-arrow" viewBox="0 0 17 32">
<path d="M15.013 32l-15.013-16 15.013-16 1.876 2-13.136 14 13.136 14-1.876 2z"></path>
</symbol>
<symbol id="heli-distance" viewBox="0 0 32 32">
<path fill="#919191" style="fill: var(--color2, #919191)" d="M5.389 9.614c-0.339 0-0.615 0.276-0.615 0.615s0.276 0.615 0.615 0.615 0.615-0.276 0.615-0.615c0-0.339-0.276-0.615-0.615-0.615z"></path>
<path fill="#919191" style="fill: var(--color2, #919191)" d="M5.389 4.84c-2.971 0-5.389 2.417-5.389 5.389 0 1.472 0.803 3.395 2.386 5.716 1.133 1.66 2.251 2.916 2.298 2.969 0.179 0.201 0.435 0.315 0.704 0.315s0.525-0.115 0.704-0.315c0.047-0.053 1.165-1.308 2.298-2.969 1.584-2.321 2.386-4.244 2.386-5.716 0-2.971-2.418-5.389-5.389-5.389zM5.389 12.734c-1.381 0-2.505-1.124-2.505-2.505s1.124-2.505 2.505-2.505c1.381 0 2.505 1.124 2.505 2.505s-1.124 2.505-2.505 2.505z"></path>
<path fill="#919191" style="fill: var(--color2, #919191)" d="M22.276 25.27h-2.351c-1.666 0-3.021-1.355-3.021-3.020 0-2.707-2.203-4.91-4.91-4.91h-2.271c-0.522 0.744-1.029 1.398-1.427 1.889h3.698c1.665 0 3.021 1.355 3.021 3.021 0 2.707 2.203 4.91 4.91 4.91h3.778c-0.398-0.492-0.905-1.146-1.427-1.889z"></path>
<path fill="#919191" style="fill: var(--color2, #919191)" d="M26.611 17.544c-0.339 0-0.615 0.276-0.615 0.615s0.276 0.615 0.615 0.615c0.339 0 0.615-0.276 0.615-0.615s-0.276-0.615-0.615-0.615z"></path>
<path fill="#919191" style="fill: var(--color2, #919191)" d="M26.611 12.771c-2.971 0-5.389 2.418-5.389 5.389 0 1.472 0.803 3.395 2.386 5.716 1.133 1.66 2.251 2.916 2.298 2.969 0.179 0.201 0.435 0.315 0.704 0.315s0.525-0.115 0.704-0.315c0.047-0.053 1.165-1.308 2.298-2.969 1.584-2.321 2.386-4.244 2.386-5.716 0-2.971-2.418-5.389-5.389-5.389zM26.611 20.664c-1.381 0-2.505-1.123-2.505-2.505s1.123-2.505 2.505-2.505 2.505 1.124 2.505 2.505c0 1.381-1.123 2.505-2.505 2.505z"></path>
</symbol>
<symbol id="heli-seats" viewBox="0 0 32 32">
<path fill="#919191" style="fill: var(--color2, #919191)" d="M26.632 6.622c-1.448 1.008-3.44 0.656-4.448-0.784-1.016-1.448-0.664-3.44 0.784-4.456s3.44-0.664 4.456 0.784c1.008 1.448 0.656 3.44-0.792 4.456z"></path>
<path fill="#919191" style="fill: var(--color2, #919191)" d="M25.656 23.934l3.144-15.136h3.2l-3.192 15.608c-0.592 3.904-3.952 6.792-7.904 6.792h-11.304v-3.2h11.312c2.368-0 4.384-1.728 4.744-4.064z"></path>
<path fill="#919191" style="fill: var(--color2, #919191)" d="M9.232 21.598h7.808l1.64-6.56c-2.52 1.424-5.248 2.472-8.24 1.952v-3.4c2.608 0.488 5.504-0.44 7.504-1.992l2.632-2.048c0.36-0.28 0.784-0.48 1.224-0.608 0.504-0.144 1.048-0.184 1.584-0.096l0.040 0.008c1.96 0.344 3.272 2.208 2.928 4.168l-2.168 9.472c-0.432 2.264-2.408 3.904-4.712 3.904h-10.96l-6.112 4.8-2.4-2.4 9.232-7.2z"></path>
</symbol>
<symbol id="heli-speed" viewBox="0 0 32 32">
<path fill="#919191" style="fill: var(--color2, #919191)" d="M27.173 11.427l-1.64 2.467c0.791 1.578 1.178 3.327 1.127 5.090s-0.539 3.488-1.42 5.016h-18.48c-1.145-1.986-1.62-4.289-1.353-6.567s1.26-4.408 2.832-6.077c1.573-1.669 3.641-2.786 5.899-3.186s4.584-0.063 6.635 0.963l2.467-1.64c-2.511-1.61-5.49-2.332-8.46-2.049s-5.759 1.553-7.922 3.608c-2.163 2.055-3.574 4.776-4.007 7.728s0.135 5.963 1.616 8.554c0.233 0.403 0.567 0.738 0.969 0.972s0.859 0.358 1.324 0.361h18.467c0.47 0.002 0.932-0.12 1.339-0.355s0.746-0.572 0.981-0.979c1.229-2.128 1.845-4.554 1.782-7.011s-0.805-4.848-2.142-6.909l-0.013 0.013zM14.12 20.547c0.248 0.248 0.542 0.445 0.866 0.579s0.671 0.203 1.021 0.203c0.35 0 0.697-0.069 1.021-0.203s0.618-0.331 0.866-0.579l7.547-11.32-11.32 7.547c-0.248 0.248-0.445 0.542-0.579 0.866s-0.203 0.671-0.203 1.021c0 0.35 0.069 0.697 0.203 1.021s0.331 0.618 0.579 0.866v0z"></path>
</symbol>
<symbol id="models-bg" viewBox="0 0 59 32">
<path d="M0 0h71.186v40.068h-71.186v-40.068z"></path>
</symbol>
</defs>
</svg>
