<svg aria-hidden="true" style="position: absolute; width: 0; height: 0; overflow: hidden;" version="1.1" xmlns="http://www.w3.org/2000/svg" xmlns:xlink="http://www.w3.org/1999/xlink">
<defs>
<symbol id="instagram" viewBox="0 0 31 32">
<path  d="M2.743 1.221h25.6c1.161 0 2.103 0.941 2.103 2.103v25.6c0 1.161-0.941 2.103-2.103 2.103h-25.6c-1.161 0-2.103-0.941-2.103-2.103v-25.6c0-1.161 0.941-2.103 2.103-2.103z"></path>
<path  d="M23.451 16.124c0 4.368-3.541 7.909-7.909 7.909s-7.909-3.541-7.909-7.909c0-4.368 3.541-7.909 7.909-7.909s7.909 3.541 7.909 7.909z"></path>
<path  d="M27.337 6.41c0 1.149-0.931 2.080-2.080 2.080s-2.080-0.931-2.080-2.080c0-1.149 0.931-2.080 2.080-2.080s2.080 0.931 2.080 2.080z"></path>
</symbol>
<symbol id="youtube" viewBox="0 0 40 32">
<path d="M3.556 0.999h33.185c1.505 0 2.726 1.22 2.726 2.726v24.119c0 1.506-1.22 2.726-2.726 2.726h-33.185c-1.506 0-2.726-1.22-2.726-2.726v-24.119c0-1.506 1.22-2.726 2.726-2.726z"></path>
<path d="M28.619 13.753c2.297 0.909 2.297 4.16 0 5.069l-13.23 5.238c-1.789 0.708-3.729-0.61-3.729-2.535v-10.475c0-1.924 1.94-3.243 3.729-2.535l13.23 5.238z"></path>
</symbol>
<symbol id="facebook" viewBox="0 0 32 32">
<path d="M29.333 0h-26.667c-1.493 0-2.667 1.173-2.667 2.667v26.667c0 1.493 1.173 2.667 2.667 2.667h26.667c1.493 0 2.667-1.173 2.667-2.667v-26.667c0-1.493-1.173-2.667-2.667-2.667zM16 30.933v-10.667h-4.267v-4.267h4.267v-3.733c0-3.040 2.347-5.6 5.333-5.867h4.8v4.267h-4.267c-0.907 0-1.6 0.693-1.6 1.6v3.733h5.333v4.267h-5.333v10.667l-4.267-0zM30.933 29.333c0 0.907-0.693 1.6-1.6 1.6h-8v-9.6h5.333v-6.4h-5.333v-2.667c0-0.32 0.213-0.533 0.533-0.533h5.333v-6.4h-5.92c-3.573 0.32-6.347 3.36-6.347 6.933v2.667h-4.267v6.4h4.267v9.6h-12.267c-0.907 0-1.6-0.693-1.6-1.6v-26.667c0-0.907 0.693-1.6 1.6-1.6h26.667c0.907 0 1.6 0.693 1.6 1.6v26.667h-0z"></path>
</symbol>
<symbol id="search-bar" viewBox="0 0 31 32">
<path fill="#fff" style="fill: var(--color2, #fff)" d="M11.833 0c2.264-0 4.48 0.649 6.386 1.871s3.421 2.964 4.366 5.021c0.945 2.057 1.28 4.342 0.966 6.584s-1.265 4.346-2.74 6.064l10.274 10.274-1.287 1.287-10.276-10.276c-1.449 1.239-3.177 2.11-5.035 2.538s-3.792 0.4-5.638-0.080c-1.845-0.481-3.547-1.4-4.961-2.68s-2.496-2.883-3.157-4.672c-0.66-1.789-0.879-3.711-0.636-5.602s0.938-3.696 2.028-5.261 2.542-2.842 4.233-3.725c1.69-0.882 3.569-1.343 5.476-1.343v0zM11.833 1.82c-2.655 0-5.202 1.055-7.080 2.932s-2.932 4.424-2.932 7.080c0 2.655 1.055 5.202 2.932 7.080s4.424 2.932 7.080 2.932c2.655 0 5.202-1.055 7.080-2.932s2.932-4.424 2.932-7.080c0-2.655-1.055-5.202-2.932-7.080s-4.424-2.932-7.080-2.932z"></path>
</symbol>
<symbol id="scroll-down-arrow" viewBox="0 0 15 32">
<path fill="#c4c4c4" style="fill: var(--color1, #c4c4c4)" d="M7.926 0v29.172l5.945-6.879 0.849 0.87-7.36 8.517-7.36-8.517 0.849-0.87 5.945 6.879v-29.172h1.132z"></path>
</symbol>
</defs>
</svg>
